<?xml version="1.0" encoding="utf-8"?>
<!-- Generator: Adobe Illustrator 19.0.0, SVG Export Plug-In . SVG Version: 6.00 Build 0)  -->
<svg version="1.1" xmlns="http://www.w3.org/2000/svg" xmlns:xlink="http://www.w3.org/1999/xlink" x="0px" y="0px"
	 viewBox="0 0 575 154" style="enable-background:new 0 0 575 154;" xml:space="preserve">
<style type="text/css">
	.st0{fill:#E53A15;}
	.st1{fill:#E53915;}
	.st2{fill:#306B42;}
	.st3{fill:#001B8C;}
</style>
<g id="Layer_1">
</g>
<g id="Layer_2">
	<g>
		<g>
			<path class="st0" d="M15.3,57.3c0,0,49.6-65.5,137.5-28.8l-13.9,15.6C138.9,44.2,66.1,12.4,15.3,57.3z"/>
			<path class="st1" d="M31.8,120.2c0,0,75.9,32.3,122.5-23.6l30.8,8.4C185.1,105.1,124.8,178.3,31.8,120.2z"/>
			<path class="st2" d="M126.3,46.2c0,0-29.6-18.3-76.4-4.6c0,0-23,5.6-33.9,23.8C8.2,78.1,9.8,94.3,19,105.9
				c13.1,16.4,63.7,32.2,107.2,9.1c0,0-61,13.9-77.3-23c-2-4.6-2.7-9.7-1.7-14.7C50.2,63.1,63.8,34.3,126.3,46.2z"/>
		</g>
		<g>
			<path class="st2" d="M127.1,55.2l-2.3,7.1c-1.2-0.8-2.5-1.4-3.9-1.7c-1.4-0.4-2.9-0.6-4.4-0.6c-4.2,0-7.5,1.2-9.9,3.6
				c-2.4,2.4-3.6,5.7-3.6,10c0,2.8,0.9,5,2.7,6.6c1.8,1.6,4.2,2.4,7.3,2.4c1.4,0,2.7-0.2,4.1-0.5c1.4-0.4,2.8-0.9,4.3-1.6l-0.9,8.1
				c-1.7,0.4-3.4,0.8-5,1c-1.6,0.2-3.2,0.3-4.7,0.3c-5.5,0-9.8-1.5-12.9-4.4c-3.1-2.9-4.6-7-4.6-12.1c0-2.7,0.5-5.3,1.4-7.7
				c1-2.5,2.3-4.6,4-6.4c2.1-2.1,4.4-3.7,7-4.7c2.6-1,5.8-1.5,9.4-1.5c1.9,0,3.8,0.2,5.8,0.5C122.9,53.9,124.9,54.5,127.1,55.2z"/>
			<path class="st2" d="M132.7,51.1h9.1l-3.2,15.1c1.3-1.3,2.7-2.2,4.1-2.9c1.4-0.6,3-1,4.6-1c2.7,0,4.8,0.8,6.3,2.4
				c1.5,1.6,2.2,3.8,2.2,6.7c0,0.9-0.1,1.9-0.2,3.1c-0.2,1.2-0.4,2.6-0.7,4.1L152.7,89h-9.1l2.8-13.1c0.1-0.5,0.2-1,0.2-1.4
				c0.1-0.4,0.1-0.8,0.1-1.2c0-1.2-0.3-2.2-0.9-2.8c-0.6-0.7-1.4-1-2.4-1c-1.8,0-3.3,0.7-4.5,2.1c-1.2,1.4-2.1,3.5-2.7,6.4l-2.3,11
				h-9.1L132.7,51.1z"/>
			<path class="st2" d="M186.5,75.1l-1.5,7.4c-0.3,1.5-0.6,2.8-0.7,3.7c-0.2,1-0.3,1.9-0.3,2.8h-7.5l0.5-4c-1,1.5-2.3,2.6-3.8,3.4
				c-1.5,0.8-3.3,1.1-5.2,1.1c-2.6,0-4.7-0.7-6.3-2.1c-1.6-1.4-2.4-3.3-2.4-5.6c0-3,1.3-5.3,4-7c2.7-1.7,6.5-2.5,11.3-2.5
				c0.6,0,1.2,0,1.9,0.1c0.7,0,1.5,0.1,2.3,0.2c0-0.1,0-0.2,0-0.3c0-0.1,0-0.3,0-0.5c0-1.3-0.4-2.3-1.3-3c-0.9-0.7-2.1-1-3.7-1
				c-1.5,0-3,0.2-4.4,0.5c-1.4,0.3-2.8,0.8-4.1,1.5l1.1-6.1c1.4-0.5,2.9-0.9,4.3-1.2c1.4-0.3,2.9-0.4,4.4-0.4c3.8,0,6.8,0.7,8.9,2.2
				c2.1,1.5,3.2,3.5,3.2,6.1c0,0.6,0,1.3-0.1,2.1C186.9,73.3,186.7,74.1,186.5,75.1z M177.7,77.1c-0.3,0-0.7-0.1-1-0.1
				c-0.4,0-0.9,0-1.6,0c-2.4,0-4.2,0.3-5.5,1c-1.3,0.7-1.9,1.7-1.9,3c0,0.9,0.3,1.6,0.9,2.1c0.6,0.5,1.4,0.8,2.4,0.8
				c1.7,0,3.1-0.6,4.3-1.9C176.6,80.9,177.4,79.2,177.7,77.1z"/>
			<path class="st2" d="M198.1,51.1h9l-4.8,22.8l9-10.9h10.2l-10.7,12.1l6.6,13.9h-9.9l-5.6-13.6L199.1,89h-9L198.1,51.1z"/>
			<path class="st2" d="M245,62.9l-2,7.6c-0.8-0.2-1.6-0.4-2.2-0.5c-0.7-0.1-1.2-0.2-1.7-0.2c-1.9,0-3.4,0.6-4.5,1.8
				c-1.1,1.2-2,3.3-2.6,6.2L229.5,89h-9.1l5.3-26.1h8.3l-1,4.8c1.3-1.9,2.7-3.3,4-4.1c1.4-0.8,2.9-1.3,4.6-1.3c0.5,0,1.1,0,1.6,0.1
				C243.8,62.5,244.4,62.7,245,62.9z"/>
			<path class="st2" d="M271.1,75.1l-1.5,7.4c-0.3,1.5-0.6,2.8-0.7,3.7c-0.2,1-0.3,1.9-0.3,2.8H261l0.5-4c-1,1.5-2.3,2.6-3.8,3.4
				c-1.5,0.8-3.3,1.1-5.2,1.1c-2.6,0-4.7-0.7-6.3-2.1c-1.6-1.4-2.4-3.3-2.4-5.6c0-3,1.3-5.3,4-7c2.7-1.7,6.5-2.5,11.3-2.5
				c0.6,0,1.2,0,1.9,0.1c0.7,0,1.5,0.1,2.3,0.2c0-0.1,0-0.2,0-0.3c0-0.1,0-0.3,0-0.5c0-1.3-0.4-2.3-1.3-3s-2.1-1-3.7-1
				c-1.5,0-3,0.2-4.4,0.5c-1.4,0.3-2.8,0.8-4.1,1.5l1.1-6.1c1.4-0.5,2.9-0.9,4.3-1.2c1.4-0.3,2.9-0.4,4.4-0.4c3.8,0,6.8,0.7,8.9,2.2
				c2.1,1.5,3.2,3.5,3.2,6.1c0,0.6,0,1.3-0.1,2.1C271.4,73.3,271.3,74.1,271.1,75.1z M262.2,77.1c-0.3,0-0.7-0.1-1-0.1
				c-0.4,0-0.9,0-1.6,0c-2.4,0-4.2,0.3-5.5,1c-1.3,0.7-1.9,1.7-1.9,3c0,0.9,0.3,1.6,0.9,2.1c0.6,0.5,1.4,0.8,2.4,0.8
				c1.7,0,3.1-0.6,4.3-1.9C261.1,80.9,261.9,79.2,262.2,77.1z"/>
			<path class="st2" d="M310.1,55.2l-2.3,7.1c-1.2-0.8-2.5-1.4-3.9-1.7c-1.4-0.4-2.9-0.6-4.4-0.6c-4.2,0-7.5,1.2-9.9,3.6
				c-2.4,2.4-3.6,5.7-3.6,10c0,2.8,0.9,5,2.7,6.6c1.8,1.6,4.2,2.4,7.3,2.4c1.4,0,2.7-0.2,4.1-0.5c1.4-0.4,2.8-0.9,4.3-1.6l-0.9,8.1
				c-1.7,0.4-3.4,0.8-5,1c-1.6,0.2-3.2,0.3-4.7,0.3c-5.5,0-9.8-1.5-12.9-4.4c-3.1-2.9-4.6-7-4.6-12.1c0-2.7,0.5-5.3,1.4-7.7
				c1-2.5,2.3-4.6,4-6.4c2.1-2.1,4.4-3.7,7-4.7s5.8-1.5,9.4-1.5c1.9,0,3.8,0.2,5.8,0.5C305.9,53.9,307.9,54.5,310.1,55.2z"/>
			<path class="st2" d="M315.7,51.1h9.1l-3.2,15.1c1.3-1.3,2.7-2.2,4.1-2.9c1.4-0.6,3-1,4.6-1c2.7,0,4.8,0.8,6.3,2.4
				c1.5,1.6,2.2,3.8,2.2,6.7c0,0.9-0.1,1.9-0.2,3.1c-0.2,1.2-0.4,2.6-0.7,4.1L335.7,89h-9.1l2.8-13.1c0.1-0.5,0.2-1,0.2-1.4
				c0.1-0.4,0.1-0.8,0.1-1.2c0-1.2-0.3-2.2-0.9-2.8c-0.6-0.7-1.4-1-2.4-1c-1.8,0-3.3,0.7-4.5,2.1c-1.2,1.4-2.1,3.5-2.7,6.4l-2.4,11
				h-9.1L315.7,51.1z"/>
			<path class="st2" d="M369.8,78.4h-18.7c0.2,1.9,0.8,3.3,1.9,4.2c1.1,0.9,2.7,1.4,4.8,1.4c1.4,0,2.9-0.2,4.4-0.5
				c1.5-0.3,3-0.8,4.4-1.5l-1,6.4c-1.5,0.5-3.1,0.9-4.7,1.1c-1.6,0.2-3.2,0.4-4.9,0.4c-4,0-7.2-1.1-9.5-3.3
				c-2.3-2.2-3.5-5.2-3.5-8.9c0-2.1,0.4-4.2,1.3-6.2c0.8-2.1,2-3.8,3.4-5.2c1.4-1.4,3.1-2.4,5-3.1c2-0.7,4.2-1,6.6-1
				c3.6,0,6.4,1,8.3,2.9c1.9,1.9,2.9,4.7,2.9,8.3c0,0.7,0,1.5-0.1,2.4C370.2,76.6,370,77.5,369.8,78.4z M362.8,73.3
				c0-0.3,0.1-0.6,0.1-0.8c0-0.2,0-0.3,0-0.5c0-1.5-0.4-2.6-1.2-3.4c-0.8-0.8-1.9-1.3-3.3-1.3c-1.4,0-2.7,0.5-3.8,1.6
				c-1.1,1-1.9,2.5-2.4,4.3H362.8z"/>
			<path class="st2" d="M417.8,74.1l-3.2,15h-8.7l2.7-13.1c0.1-0.7,0.3-1.3,0.3-1.8c0.1-0.5,0.1-1,0.1-1.4c0-1-0.2-1.7-0.7-2.3
				c-0.5-0.6-1.2-0.8-2-0.8c-0.7,0-1.3,0.1-1.9,0.4c-0.6,0.3-1.1,0.7-1.6,1.3c-0.8,1.1-1.5,2.9-2,5.4c-0.1,0.5-0.2,0.9-0.2,1.2
				l-2.3,11h-9.2l2.8-13.1c0.1-0.6,0.2-1.2,0.3-1.8c0.1-0.6,0.1-1.2,0.1-1.8c0-0.9-0.2-1.6-0.7-2.1c-0.5-0.5-1.1-0.7-2-0.7
				c-1.4,0-2.5,0.5-3.3,1.5c-0.8,1-1.5,2.7-2,4.9l-2.8,13h-9.2l5.6-26.3h7.8l-1,4.8c1.5-1.8,3-3.1,4.4-3.9c1.5-0.8,3-1.2,4.7-1.2
				c1.8,0,3.4,0.4,4.6,1.3c1.2,0.8,2.1,2.1,2.6,3.8c1.5-1.8,2.9-3.1,4.4-3.9s3.1-1.2,4.9-1.2c2.5,0,4.4,0.7,5.8,2.2
				c1.4,1.5,2.1,3.5,2.1,6c0,0.6,0,1.2-0.1,1.8C418,72.9,417.9,73.5,417.8,74.1z"/>
		</g>
		<rect x="184.5" y="98.6" class="st1" width="380" height="3.7"/>
		<g>
			<path class="st3" d="M230.2,126.6V112h3v12.5h6.5v2.1H230.2z"/>
			<path class="st3" d="M248.9,113.9v-2.4h2.9v2.4H248.9z M248.9,126.6v-10.8h2.9v10.8H248.9z"/>
			<path class="st3" d="M262.6,126.6v-9h-1.5v-1.8h1.5V115c0-1.5,0.3-2.6,1-3.2c0.7-0.6,1.7-1,3-1c0.9,0,1.7,0.1,2.7,0.4v2
				c-0.8-0.3-1.6-0.5-2.2-0.5c-0.3,0-0.6,0.1-0.8,0.2c-0.2,0.1-0.4,0.3-0.5,0.6c-0.1,0.3-0.2,0.8-0.2,1.5v0.9h2.7v1.8h-2.7v9H262.6z
				"/>
			<path class="st3" d="M286.3,126.2c-1.4,0.4-2.7,0.6-3.9,0.6c-1.2,0-2.2-0.2-3.1-0.7c-0.9-0.4-1.6-1.1-2-2.1
				c-0.5-0.9-0.7-1.9-0.7-3c0-1,0.2-1.9,0.6-2.8c0.4-0.9,1-1.5,1.8-2c0.8-0.5,1.7-0.7,2.8-0.7c1.4,0,2.5,0.4,3.3,1.3
				c0.8,0.9,1.2,2.5,1.2,4.9h-6.7c0.1,0.7,0.2,1.3,0.5,1.7c0.3,0.4,0.6,0.8,1.1,1s1.1,0.4,1.8,0.4c1,0,2.1-0.2,3.3-0.7V126.2z
				 M279.6,120.1h3.8c0-1-0.2-1.7-0.5-2.1s-0.8-0.6-1.3-0.6c-0.6,0-1,0.2-1.4,0.7S279.7,119.2,279.6,120.1z"/>
			<path class="st3" d="M295.9,126.2v-2.1c1.4,0.6,2.7,0.9,3.7,0.9c0.5,0,1-0.1,1.3-0.3c0.3-0.2,0.5-0.5,0.5-0.9
				c0-0.3-0.1-0.6-0.4-0.8c-0.2-0.2-0.6-0.4-1.1-0.6l-1-0.4c-1-0.4-1.8-0.9-2.3-1.4c-0.5-0.5-0.7-1.1-0.7-1.9c0-0.9,0.4-1.7,1.1-2.3
				c0.7-0.6,1.9-0.9,3.4-0.9c0.9,0,1.9,0.1,3.1,0.4v2.1c-1.2-0.4-2.1-0.6-2.9-0.6c-0.6,0-1.1,0.1-1.4,0.3c-0.3,0.2-0.5,0.5-0.5,0.8
				c0,0.3,0.1,0.5,0.3,0.7c0.2,0.2,0.5,0.4,1,0.6l0.8,0.3c1.4,0.5,2.3,1,2.8,1.5c0.4,0.5,0.6,1.1,0.6,1.8c0,0.9-0.4,1.7-1.2,2.4
				c-0.8,0.7-1.9,1-3.4,1C298.6,126.8,297.3,126.6,295.9,126.2z"/>
			<path class="st3" d="M322.4,126.3c-1.2,0.3-2.3,0.5-3.3,0.5c-1.8,0-3.2-0.5-4.1-1.6c-0.9-1.1-1.4-2.4-1.4-4c0-1.7,0.5-3,1.5-4.1
				c1-1,2.4-1.6,4.3-1.6c0.9,0,1.9,0.1,3,0.4v2.1c-1.2-0.4-2.1-0.6-2.8-0.6c-1,0-1.7,0.4-2.2,1.1c-0.5,0.8-0.7,1.6-0.7,2.5
				c0,0.7,0.1,1.4,0.4,2c0.3,0.6,0.6,1.1,1.1,1.3c0.5,0.3,1,0.4,1.6,0.4c0.9,0,1.7-0.2,2.7-0.6V126.3z"/>
			<path class="st3" d="M332.1,113.9v-2.4h2.9v2.4H332.1z M332.1,126.6v-10.8h2.9v10.8H332.1z"/>
			<path class="st3" d="M354.3,126.2c-1.4,0.4-2.7,0.6-3.9,0.6c-1.2,0-2.2-0.2-3.1-0.7c-0.9-0.4-1.6-1.1-2-2.1
				c-0.5-0.9-0.7-1.9-0.7-3c0-1,0.2-1.9,0.6-2.8c0.4-0.9,1-1.5,1.8-2c0.8-0.5,1.7-0.7,2.8-0.7c1.4,0,2.5,0.4,3.3,1.3
				c0.8,0.9,1.2,2.5,1.2,4.9h-6.7c0.1,0.7,0.2,1.3,0.5,1.7c0.3,0.4,0.6,0.8,1.1,1s1.1,0.4,1.8,0.4c1,0,2.1-0.2,3.3-0.7V126.2z
				 M347.6,120.1h3.8c0-1-0.2-1.7-0.5-2.1s-0.8-0.6-1.3-0.6c-0.6,0-1,0.2-1.4,0.7C347.9,118.5,347.7,119.2,347.6,120.1z"/>
			<path class="st3" d="M364.2,126.6v-10.8h2.9v2c0.5-0.8,1.1-1.4,1.7-1.8s1.3-0.5,1.9-0.5c0.9,0,1.6,0.3,2.2,0.8
				c0.6,0.5,0.9,1.4,0.9,2.6v7.7H371v-6.9c0-0.6-0.1-1-0.2-1.2c-0.1-0.2-0.3-0.4-0.4-0.5c-0.2-0.1-0.4-0.2-0.6-0.2
				c-0.4,0-0.8,0.1-1.3,0.4c-0.4,0.3-0.9,0.8-1.4,1.6v6.8H364.2z"/>
			<path class="st3" d="M392.3,126.3c-1.2,0.3-2.3,0.5-3.3,0.5c-1.8,0-3.2-0.5-4.1-1.6c-0.9-1.1-1.4-2.4-1.4-4c0-1.7,0.5-3,1.5-4.1
				c1-1,2.4-1.6,4.3-1.6c0.9,0,1.9,0.1,3,0.4v2.1c-1.2-0.4-2.1-0.6-2.8-0.6c-1,0-1.7,0.4-2.2,1.1c-0.5,0.8-0.7,1.6-0.7,2.5
				c0,0.7,0.1,1.4,0.4,2c0.3,0.6,0.6,1.1,1.1,1.3c0.5,0.3,1,0.4,1.6,0.4c0.9,0,1.7-0.2,2.7-0.6V126.3z"/>
			<path class="st3" d="M410.7,126.2c-1.4,0.4-2.7,0.6-3.9,0.6c-1.2,0-2.2-0.2-3.1-0.7c-0.9-0.4-1.6-1.1-2-2.1
				c-0.5-0.9-0.7-1.9-0.7-3c0-1,0.2-1.9,0.6-2.8s1-1.5,1.8-2c0.8-0.5,1.7-0.7,2.8-0.7c1.4,0,2.5,0.4,3.3,1.3
				c0.8,0.9,1.2,2.5,1.2,4.9h-6.7c0.1,0.7,0.2,1.3,0.5,1.7c0.3,0.4,0.6,0.8,1.1,1c0.4,0.2,1.1,0.4,1.8,0.4c1,0,2.1-0.2,3.3-0.7
				V126.2z M404,120.1h3.8c0-1-0.2-1.7-0.5-2.1s-0.8-0.6-1.3-0.6c-0.6,0-1,0.2-1.4,0.7C404.3,118.5,404.1,119.2,404,120.1z"/>
			<path class="st3" d="M420.4,126.2v-2.1c1.4,0.6,2.7,0.9,3.7,0.9c0.5,0,1-0.1,1.3-0.3c0.3-0.2,0.5-0.5,0.5-0.9
				c0-0.3-0.1-0.6-0.4-0.8c-0.2-0.2-0.6-0.4-1.1-0.6l-1-0.4c-1-0.4-1.8-0.9-2.3-1.4c-0.5-0.5-0.7-1.1-0.7-1.9c0-0.9,0.4-1.7,1.1-2.3
				c0.7-0.6,1.9-0.9,3.4-0.9c0.9,0,1.9,0.1,3.1,0.4v2.1c-1.2-0.4-2.1-0.6-2.9-0.6c-0.6,0-1.1,0.1-1.4,0.3c-0.3,0.2-0.5,0.5-0.5,0.8
				c0,0.3,0.1,0.5,0.3,0.7c0.2,0.2,0.5,0.4,1,0.6l0.8,0.3c1.4,0.5,2.3,1,2.8,1.5c0.4,0.5,0.6,1.1,0.6,1.8c0,0.9-0.4,1.7-1.2,2.4
				c-0.8,0.7-1.9,1-3.4,1C423,126.8,421.7,126.6,420.4,126.2z"/>
			<path class="st3" d="M452.3,126.6V112h5c1.5,0,2.5,0.2,3.1,0.5s1,0.7,1.3,1.3s0.5,1.3,0.5,2.1c0,1.6-0.5,2.9-1.5,3.7
				c-1,0.9-2.4,1.3-4.1,1.3h-1.2v5.7H452.3z M455.2,118.9h0.6c1.1,0,1.9-0.3,2.5-0.8c0.5-0.5,0.8-1.2,0.8-1.9c0-0.4-0.1-0.8-0.2-1.1
				c-0.2-0.3-0.4-0.6-0.8-0.8c-0.3-0.2-0.9-0.3-1.7-0.3h-1.1V118.9z"/>
			<path class="st3" d="M474.2,126.6l-4.1-10.8h3.1l3,7.8l3-7.8h2.1l-4.2,10.8H474.2z"/>
			<path class="st3" d="M495.9,126.5c-0.7,0.2-1.2,0.3-1.6,0.3c-1,0-1.7-0.1-2.2-0.4s-0.9-0.6-1.2-1.1s-0.4-1.1-0.4-2v-5.7h-1.2
				v-1.8h1.2v-1.8l2.9-0.3v2.2h2.3v1.8h-2.3v5.3c0,0.8,0.1,1.3,0.4,1.6c0.3,0.3,0.7,0.4,1.2,0.4c0.2,0,0.5,0,0.9-0.1V126.5z"/>
			<path class="st3" d="M504.5,126.6v-3.2h3.2v3.2H504.5z"/>
			<path class="st3" d="M517.2,126.6V112h3v12.5h6.5v2.1H517.2z"/>
			<path class="st3" d="M541.4,126.5c-0.7,0.2-1.2,0.3-1.6,0.3c-1,0-1.7-0.1-2.2-0.4c-0.5-0.3-0.9-0.6-1.2-1.1s-0.4-1.1-0.4-2v-5.7
				h-1.2v-1.8h1.2v-1.8l2.9-0.3v2.2h2.3v1.8h-2.3v5.3c0,0.8,0.1,1.3,0.4,1.6s0.7,0.4,1.2,0.4c0.2,0,0.5,0,0.9-0.1V126.5z"/>
			<path class="st3" d="M557.6,126.6v-2.1c-0.4,0.8-0.8,1.3-1.4,1.7c-0.6,0.4-1.3,0.6-2.1,0.6c-1.3,0-2.3-0.5-3-1.5
				s-1.1-2.3-1.1-3.9c0-1.7,0.4-3.1,1.2-4.3c0.8-1.1,1.9-1.7,3.4-1.7c0.4,0,0.7,0,1.1,0.1c0.3,0.1,0.6,0.2,0.9,0.4
				c0.3,0.2,0.6,0.4,1,0.8V111h2.9v15.6H557.6z M557.6,118.6c-0.4-0.5-0.8-0.8-1.1-0.9c-0.4-0.2-0.7-0.2-1.1-0.2
				c-0.8,0-1.3,0.4-1.7,1.1c-0.4,0.8-0.6,1.6-0.6,2.7c0,1,0.2,1.8,0.5,2.4c0.4,0.6,0.9,0.9,1.5,0.9c0.4,0,0.9-0.2,1.3-0.5
				c0.4-0.3,0.8-0.7,1.2-1.2V118.6z"/>
		</g>
	</g>
</g>
</svg>
